<svg width="350" height="250" xmlns="http://www.w3.org/2000/svg" version="1.1">
 <g>
  <title>Layer 1</title>
  <g id="surface1">
   <path d="m290.08984,4.64453c-2.02734,2.25 -3.98046,6.14453 -7.28515,14.83985c-1.57813,3.89453 -3.60547,8.61718 -4.65625,10.41406c-0.97656,1.80078 -1.80078,3.67187 -1.80078,4.19922c0,1.04687 6.30859,7.11718 11.41406,10.86328c1.95312,1.42578 3.60547,3 3.60547,3.44922c0,1.04687 -10.81641,11.53906 -11.94141,11.53906c-1.80078,0 -0.60156,1.34766 3.90625,4.26953c5.25391,3.44922 10.4375,8.39453 10.0625,9.51953c-0.15234,0.375 -4.43359,2.92188 -9.61328,5.54297c-5.18359,2.625 -9.23828,5.17188 -9.08594,5.62109c0.14844,0.52735 2.32813,5.2461 4.80469,10.49219c2.48047,5.32031 4.28125,9.81641 4.05469,10.04297c-0.60156,0.59766 -14.79297,3.89453 -16.7461,3.96875c-0.97656,0 -1.72656,0.30078 -1.72656,0.67578c0,0.30078 1.20313,4.1211 2.62891,8.39453c1.65234,5.01953 3.23047,8.24219 4.28125,9.06641c2.92578,2.24609 12.23828,5.76953 13.96484,5.32031c2.78125,-0.67578 9.53906,-13.26562 12.91797,-23.83203c0.82422,-2.54687 2.10156,-11.01562 3.00391,-19.33203c1.5,-15.13672 1.72656,-25.10547 1.27734,-61.44922l-0.30078,-18.58203l-3.23047,-3.29688c-3.90234,-3.97265 -6.98437,-4.49609 -9.53516,-1.72656zm0,0" fill-rule="nonzero" fill="rgb(0%,0%,0%)" id="svg_1"/>
   <path d="m272.21484,9.89063c-5.78125,2.02343 -14.86718,5.17187 -20.27343,6.96875c-12.31641,4.12109 -29.88672,11.01562 -31.46485,12.28906c-0.67578,0.52734 -1.72656,0.82812 -2.32812,0.52734c-1.5,-0.52734 -8.03516,2.32031 -13.59375,6.14453c-2.40235,1.64844 -7.13281,4.42188 -10.4375,6.14453c-3.30469,1.79688 -7.88281,4.42188 -10.13672,5.84375c-9.16016,5.92188 -21.625,17.3125 -23.65625,21.65625c-0.97266,2.10157 -1.57422,2.55079 -2.85156,2.25c-0.90235,-0.22656 -3.00391,-0.67578 -4.58203,-0.97656c-2.02735,-0.37109 -3.90235,-1.49609 -6.00782,-3.67187c-1.94922,-1.94532 -4.8789,-3.82032 -7.95703,-5.09375c-14.34375,-5.84375 -22.67969,-8.76953 -23.28125,-8.39453c-0.44922,0.30078 -1.35156,-0.07422 -2.02734,-0.7461c-0.82422,-0.90234 -1.95313,-1.125 -3.37891,-0.82422c-1.20312,0.22266 -2.02734,0.14844 -1.80078,-0.15234c0.14844,-0.30078 -0.45312,-0.59766 -1.27734,-0.67188c-0.90235,-0.07812 -3.83203,-0.375 -6.53516,-0.67578c-6.15625,-0.67578 -10.66406,-0.75 -15.31641,-0.07422c-2.92968,0.44922 -3.53125,0.29688 -3.23046,-0.52734c0.44921,-1.04687 -3.67969,-4.04687 -12.61719,-9.21484c-4.12891,-2.39844 -10.73828,-4.8711 -16.3711,-6.21875c-2.02734,-0.45313 -5.32812,-1.65235 -7.43359,-2.625c-2.17578,-1.04688 -3.98047,-1.79688 -4.05469,-1.64844c-0.44922,0.44922 3.60547,11.46484 4.65625,12.58984c0.60157,0.59766 1.05078,1.5 1.05078,1.94922c0,1.04688 -4.8789,5.39453 -8.55859,7.71875c-1.65234,0.97266 -2.55469,1.94531 -2.02734,2.09766c0.59765,0.22265 -0.45313,1.79687 -2.78125,4.19531c-4.12891,4.19531 -7.66016,9.06641 -7.66016,10.64063c0,0.52343 3.00391,2.02343 6.60938,3.29687c3.60546,1.27344 7.05859,2.625 7.58593,2.92188c0.75,0.52734 0.30078,3 -2.02734,11.99218l-3.00391,11.39063l1.72657,0.67187c0.90234,0.375 4.95703,1.42578 8.9375,2.32422c5.33203,1.27344 7.20703,2.02344 7.20703,2.92188c0,0.60156 -0.52344,5.32031 -1.125,10.41797c-0.67578,5.09375 -1.05078,9.4414 -0.82813,9.58984c0.15235,0.22656 1.20313,-0.22266 2.25391,-0.89844c2.17969,-1.42187 2.40234,-0.89844 0.82422,1.875c-0.97266,1.72266 -0.89844,2.02344 0.90234,3.3711l1.87891,1.57421l-2.25391,3.67188c-1.20312,2.09766 -2.47656,4.49609 -2.77734,5.39453c-0.82813,2.92188 -1.87891,1.875 -1.95313,-1.87109l0,-3.52344l-3.0039,5.99609c-1.57813,3.29688 -2.92969,6.44141 -2.92969,6.89063c0,0.82812 2.6289,1.42578 4.73047,1.05078c0.97656,-0.14844 0.52734,3.97266 -0.59766,6.21875c-1.05469,2.02344 -1.05469,2.32422 0,2.84766c1.80078,1.05078 1.35156,2.84765 -0.67578,2.84765c-2.40625,0 -2.62891,0.82422 -2.17969,7.4961c0.375,6.66796 -1.125,10.5664 -4.28125,11.01562c-2.6289,0.375 -3.7539,2.17188 -3.7539,5.99219c0,1.72656 -0.67579,5.02344 -1.5,7.19531c-1.27735,3.44531 -1.87891,4.19531 -3.75782,4.57031c-2.10156,0.375 -2.25,0.60157 -2.25,4.04688c0,5.01953 -2.92968,12.4414 -5.10937,12.73828c-1.27344,0.22656 -2.55078,2.10156 -5.40625,7.79687c-2.10156,4.1211 -3.67969,7.86719 -3.52735,8.31641c0.30079,0.97266 6.23047,2.77344 9.46094,2.77344c4.42969,0 18.47266,2.32031 18.92188,3.14453c0.30078,0.375 0.67578,2.39844 0.90234,4.42187c0.44922,3.89844 3.90625,11.91407 5.10547,11.91407c0.67578,0 0.30078,-7.71485 -0.44922,-10.19141c-0.44922,-1.49609 1.95313,-11.6875 3.37891,-14.46094l1.35156,-2.62109l0.44922,2.54687c0.90234,4.34766 2.92969,9.74219 3.75781,9.81641c0.44922,0.07422 1.35156,0.14844 1.95313,0.22266c0.59765,0.07812 1.72656,-0.3711 2.40234,-0.89844c0.89844,-0.75 1.65234,-0.82422 2.70312,-0.22266c1.65235,0.89844 5.40625,5.54297 5.40625,6.74219c0,1.80078 -8.48437,0.07422 -10.89062,-2.17187c-1.05078,-0.97266 -1.94922,-1.64844 -2.10156,-1.42579c-0.14844,0.15235 0.30078,5.32032 1.05078,11.54297c1.72656,14.46094 1.72656,17.23438 0.15234,19.9336c-1.20312,1.94531 -1.20312,2.32031 -0.22656,2.92187c3.53125,2.2461 8.03516,-1.72265 10.89062,-9.36719c1.64844,-4.49609 2.25,-5.47265 3.07813,-4.87109c0.52344,0.52344 1.05078,1.94922 1.19922,3.22266l0.22656,2.39843l12.76563,0l0.22656,-9.59375l0.22265,-9.58984l-7.73437,0.07422c-9.60938,0.07422 -9.53516,0.14844 -7.95703,-0.82422c1.5,-0.82422 14.5664,-1.05078 16.59375,-0.22656c0.67578,0.22656 1.27734,0.89844 1.27734,1.5c0,0.59765 0.60156,1.04687 1.42578,1.04687c1.95313,0 2.10157,-1.64843 1.72657,-14.3125c-0.14844,-5.91797 -0.375,-13.41406 -0.44922,-16.63281c0,-3.14844 -0.22657,-5.77344 -0.52735,-5.77344c-0.22265,0 -0.14843,-2.24609 0.15235,-5.01953c0.30078,-2.77344 0.375,-5.46875 0.14843,-5.99609c-0.30078,-0.67188 0,-0.82422 0.82813,-0.52344c1.125,0.44922 1.57422,-0.375 1.27734,-2.17187c-0.07812,-0.30079 0.375,-1.125 1.05078,-1.72266c0.60157,-0.67578 1.125,-1.64844 1.125,-2.25c0,-0.59766 0.30079,-1.05078 0.75,-1.05078c0.375,0 0.67579,-0.22266 0.52735,-0.59766c-0.07422,-0.30078 0.60156,-1.5 1.57812,-2.69922c1.65235,-2.09765 1.94922,-2.17187 8.63282,-2.32031c3.75781,-0.07422 8.71093,0 10.8164,0.22266l3.98047,0.375l4.12891,6.44531c2.2539,3.52344 5.63281,8.31641 7.50781,10.56641c3.75391,4.57031 3.90625,4.94531 2.10547,5.17187c-2.70703,0.22266 -17.94922,0 -19.15235,-0.375c-1.5,-0.44922 -2.47656,0.89844 -1.27343,1.64844c0.52343,0.29687 4.27734,0.67187 8.48437,0.82422c17.26953,0.59765 16.51953,0.44922 20.5,3.74609c7.88672,6.44531 15.6211,10.94141 20.57422,11.98828c1.65234,0.30078 2.10547,-0.07422 3.15625,-2.54687c1.95313,-4.26953 3.45313,-10.04297 5.40625,-20.83203c0.97656,-5.39454 2.17969,-11.16407 2.70313,-12.96485c0.90234,-3.22265 3.30468,-5.69531 4.65625,-4.87109c0.44921,0.22656 6.53515,0.375 13.59375,0.30078c14.5664,-0.14844 13.96484,-0.44922 17.87109,6.82031c0.97656,1.72266 2.10156,3.44531 2.47656,3.7461c0.45313,0.30078 0.45313,0.59765 0.07813,0.59765c-0.37891,0 -0.15235,0.60156 0.44922,1.27344c2.55078,2.92578 3.7539,6.44531 3.67968,10.64453c-0.22656,9.21484 -0.44922,12.0625 -0.97656,12.0625c-0.375,0 -0.60156,0.67578 -0.60156,1.57422c0,0.82422 -0.30078,2.09766 -0.67578,2.77344c-0.375,0.67187 -0.82422,3.37109 -1.05078,5.91797c-0.30079,4.27343 -0.22657,4.64843 0.97656,3.97265c0.67578,-0.375 1.5,-0.44922 1.80078,-0.22265c0.22656,0.22265 0.45312,0.07421 0.45312,-0.375c0,-0.52735 0.375,-0.90235 0.82422,-0.90235c0.60157,0 0.67578,1.19922 0.375,3.82422c-0.44922,3.22266 -0.375,3.82031 0.60157,3.44531c3.23046,-1.27343 10.21093,-1.94922 13.8164,-1.34765c6.91016,1.04687 5.78125,1.94922 -2.70312,1.94922c-4.42969,0 -8.9336,0.22265 -10.0625,0.59765c-2.02735,0.52344 -2.10157,0.67578 -2.10157,6.3711l0,5.76953l-6.91015,6.59375c-3.82813,3.67187 -8.5586,7.86718 -10.51172,9.36718c-2.32813,1.72266 -3.60547,3.29688 -3.60547,4.27344c0,0.89844 -0.44922,3.21875 -1.05078,5.16797c-1.42578,4.79688 -0.07422,5.32031 4.58203,1.64844c3.67969,-2.84766 5.17969,-3.3711 4.42969,-1.57422c-0.75,1.94922 1.95312,1.27734 6.15625,-1.49609c2.10547,-1.5 3.90625,-3 3.90625,-3.375c0,-0.44922 0.375,-0.7461 0.75,-0.7461c1.35156,0 0.75,5.09375 -1.27735,11.01563c-1.65234,4.87109 -1.94921,7.04297 -1.94921,12.96093c0.07421,6.67188 2.17578,24.65625 3,25.48047c0.15234,0.22266 3.23046,-1.125 6.76171,-2.99609c9.3086,-4.87109 15.31641,-11.46875 18.32032,-19.93359c1.72656,-4.72266 1.72656,-6.59375 0.30078,-13.03907c-0.60156,-2.69922 -1.65235,-7.41797 -2.32813,-10.49218c-0.67578,-3.07422 -1.27734,-7.71875 -1.27734,-10.26563l-0.07422,-4.64844l-4.05469,-0.52343c-4.35547,-0.52344 -12.39062,-0.07422 -14.71875,0.89843c-1.05078,0.375 -1.27734,0.22657 -1.05078,-0.52343c0.75,-2.2461 10.36328,-3.22266 17.94922,-1.72266c1.80078,0.375 2.02734,0.14844 2.40234,-2.84766c0.30079,-1.80078 1.125,-5.99609 1.875,-9.4414c1.50391,-6.89453 1.35157,-11.76563 -0.29687,-11.09375c-0.82813,0.30078 -0.97656,-0.07422 -0.60156,-1.64844c0.60156,-2.54688 2.47656,-6.06641 2.55078,-4.79297c0,0.52344 1.1289,2.02344 2.48047,3.22266c1.5,1.42187 2.10156,2.39453 1.57422,2.76953c-1.05079,0.67578 -3.75391,11.16797 -3.07813,11.91797c0.30078,0.29687 2.25391,-1.125 4.35547,-3.22266c4.58203,-4.49609 5.93359,-8.46875 5.93359,-17.6875c0,-5.24609 -0.375,-7.49219 -1.80078,-11.08984c-3.53125,-8.69141 -5.63281,-22.10547 -6.00781,-39.33985c-0.375,-13.48828 -0.52734,-14.53906 -2.40625,-18.66015c-2.10156,-4.57032 -2.02734,-5.2461 0.82812,-9.14453c1.05079,-1.42188 0.90235,-1.64844 -3.7539,-4.64454c-7.13672,-4.49609 -9.6875,-9.51562 -6.38281,-12.51562c1.5,-1.34766 1.57421,-1.27344 4.42968,1.72656c1.57813,1.72266 3.15235,3.14453 3.45313,3.14453c0.67578,0 -1.72656,-2.76953 -5.25391,-6.07031c-1.20312,-1.19922 -3.83203,-2.69531 -5.78515,-3.29687c-4.05469,-1.42188 -9.16016,-4.8711 -10.36329,-7.11719c-0.67578,-1.19922 -0.52343,-1.94922 0.67579,-3.59766l1.5039,-2.09765l-3.90625,-1.42579c-6.08203,-2.09765 -10.88672,-4.71875 -11.78906,-6.36718c-0.52734,-0.97657 -0.60156,-2.39844 -0.14844,-4.04688l0.75,-2.47265l-6.00781,-0.44922c-7.66016,-0.60157 -10.66406,-2.02344 -12.69141,-6.14453c-1.42578,-2.92579 -1.8789,-3.22266 -3.82812,-3c-1.20313,0.15234 -2.70313,0.67578 -3.30469,1.19921c-0.67578,0.52735 -1.05078,0.60157 -1.05078,0.07422c0,-0.44922 0.52344,-1.12109 1.19922,-1.49609c0.97656,-0.52734 0.67578,-0.75 -1.42578,-1.05078c-2.25391,-0.22266 -2.55469,-0.07422 -1.87891,0.75c0.67578,0.75 0.60156,1.19922 -0.14844,1.64844c-0.67578,0.375 -3.0039,-0.375 -6.68359,-2.2461c-3.15625,-1.5 -7.28516,-3.30078 -9.3125,-3.82422c-1.95313,-0.52343 -3.45313,-1.34765 -3.30469,-1.72265c0.15235,-0.44922 3.98047,-0.82422 8.63672,-0.89844c6.45703,-0.15234 8.5625,0.07422 9.23828,0.89844c0.59766,0.75 2.85156,1.05078 8.85938,1.05078c8.48437,0 13.4414,0.89844 14.79297,2.69531c0.67578,0.89844 0.52734,1.80078 -0.82422,4.34766l-1.72657,3.14453l3.52735,1.05078c15.92187,4.49609 21.40234,8.01953 16.14453,10.33984l-1.875,0.90235l2.70312,2.62109c1.57422,1.42578 3.52735,2.77344 4.42969,3.07422c2.77735,0.89844 7.20703,3.29687 8.71094,4.79297c1.87891,1.875 1.87891,3.44922 0.07422,4.49609c-1.19922,0.60156 -2.25391,0.22656 -5.40625,-1.94531c-2.70313,-1.80078 -4.12891,-2.39844 -4.35547,-1.72656c-0.22656,0.82422 0.67578,1.80078 4.05469,4.19922c0.45312,0.375 1.27734,0.67187 1.8789,0.82421c0.60157,0.14844 1.65235,0.75 2.25,1.27344c0.60157,0.52344 3.00391,1.8711 5.33203,2.9961c7.28516,3.37109 10.73829,8.24218 7.35938,10.34375c-0.97656,0.59765 -1.875,0.14843 -4.50391,-2.32422c-1.72656,-1.72266 -3.3789,-2.92188 -3.60547,-2.77344c-0.82421,0.89844 -0.67578,2.77344 0.375,3.14844c0.60157,0.22265 1.05079,0.82422 1.05079,1.34765c0,1.05078 1.65234,1.875 3.60546,1.875c1.35157,0 3.60547,2.84766 2.85547,3.51953c-0.22656,0.22657 1.05078,1.35157 2.77735,2.47266c6.23437,3.89844 9.61328,9.36719 7.20703,11.76563c-0.89844,0.89843 -0.14844,2.47265 5.03515,9.96875c1.94922,2.84765 3.22657,5.39453 3,6.21875c-0.375,1.5 -0.07421,1.875 5.48438,7.9414c4.58203,5.02344 5.55469,7.42188 4.20312,10.11719c-1.42578,2.77344 -0.30078,6.14453 3.75782,10.86719c2.92578,3.37109 3.3789,4.34765 3.0039,6.36718c-0.30078,1.57422 0.07422,3.30079 1.125,5.32422c2.10157,3.96875 4.73047,11.61328 4.65625,13.41016c-0.07422,0.75 0.97657,2.77344 2.32813,4.49609c1.27734,1.64844 2.47656,3.22266 2.55078,3.30078c0.45312,0.82422 5.85937,-2.02343 7.05859,-3.67187c2.70703,-3.82422 1.57813,-12.51563 -2.92578,-23.15625c-0.45312,-1.05078 -1.72656,-4.72266 -2.78125,-8.24219c-1.125,-3.52344 -3.0039,-8.76953 -4.27734,-11.61719c-6.3086,-14.38671 -30.48828,-54.17968 -38.89844,-64.07031c-3.08203,-3.59765 -15.69531,-20.75781 -17.57422,-23.90625c-0.75,-1.19922 4.95703,3.14844 9.3125,7.1211c2.40235,2.17187 13.06641,9.29296 13.89063,9.29296c0.22656,0 2.92968,1.4961 5.93359,3.3711c3.07813,1.87109 5.93359,3.37109 6.38281,3.37109c0.44922,0 0.15235,-1.125 -0.67578,-2.47265c-1.57812,-2.77344 -5.55469,-14.6875 -5.03125,-15.21094c0.15235,-0.22656 3.90625,-1.125 8.26172,-2.02344c4.35547,-0.89844 8.10938,-1.875 8.41016,-2.17578c0.30078,-0.22266 -1.57813,-4.57031 -4.05469,-9.58984c-2.55469,-5.01954 -4.58203,-9.66797 -4.58203,-10.33985c0,-0.82422 2.55469,-2.55078 7.73437,-5.17187c11.78907,-5.9961 11.48828,-4.94532 3.15625,-11.39063c-3.98047,-3.07422 -7.35937,-5.76953 -7.51172,-6.14453c-0.22656,-0.30078 1.87891,-2.09766 4.73047,-3.97266c9.01172,-5.91796 8.9375,-5.24609 0.45313,-13.33984l-7.28516,-7.04297l4.20313,-8.24219c3.23047,-6.07031 9.98828,-21.73046 9.23828,-21.20703c0,0 -4.80469,1.72266 -10.58985,3.82032zm-210.63671,31.625c0,0.22265 -0.30079,0.59765 -0.75,0.82421c-0.37891,0.22266 -0.75391,0.07422 -0.75391,-0.30078c0,-0.44922 0.375,-0.82422 0.75391,-0.82422c0.44921,0 0.75,0.14844 0.75,0.30079zm12.23828,5.99609c-0.22266,0.29687 0.22656,0.44922 0.97656,0.14844c1.65234,-0.52344 3.90625,0.67578 3.00391,1.57422c-0.375,0.29687 -0.82422,0.14843 -0.97657,-0.375c-0.22265,-0.60157 -0.67578,-0.67579 -1.19922,-0.30079c-0.97656,0.67579 -6.16015,-0.75 -5.40625,-1.5c0.67579,-0.67187 4.05469,-0.29687 3.60157,0.45313zm6.91015,1.94531c0.22657,0.375 -0.07422,0.75 -0.67578,0.75c-0.67578,0 -1.20312,-0.375 -1.20312,-0.75c0,-0.44922 0.30078,-0.75 0.67578,-0.75c0.45312,0 0.97656,0.30078 1.20312,0.75zm61.5,31.92578c0.67578,0.22266 1.20313,1.1211 1.20313,1.94532c0,1.35156 -0.30078,1.5 -3.23047,1.05078c-2.02734,-0.30078 -5.17969,-0.07422 -8.33203,0.67578c-2.85547,0.67187 -5.25781,1.04687 -5.48438,0.82422c-0.30078,-0.30078 12.76563,-4.79688 14.19532,-4.94922c0.22265,0 0.97265,0.22656 1.64843,0.45312zm-20.19922,2.54688c1.72657,1.94922 0.97657,2.77344 -3.3789,3.67187c-1.87891,0.375 -3.98047,0.89844 -4.65625,1.19922c-0.82422,0.30078 -1.35156,0.22266 -1.35156,-0.30078c0,-0.375 1.42578,-1.125 3.23046,-1.64844c5.78125,-1.57422 5.48047,-1.42187 4.28125,-2.17187c-2.02734,-1.19922 -6.30859,0.59765 -13.66796,5.91797c-2.17969,1.57422 -2.02735,1.34765 0.89843,-1.64844c5.71094,-5.99609 11.86719,-8.09375 14.64453,-5.01953zm-20.64843,3.67187l1.5,2.17188l-3.75391,2.32422c-2.02734,1.27343 -3.75391,2.62109 -3.75391,3.07031c0,0.375 -0.30078,0.75 -0.7539,0.75c-1.72656,0 -0.59766,-3.29688 1.8789,-5.54297c2.70313,-2.55078 3.37891,-4.19922 1.65235,-4.19922c-1.65235,0 -7.13281,6.51953 -9.61328,11.39063c-1.27735,2.47265 -2.47657,4.34765 -2.70313,4.12109c-0.375,-0.44922 4.05469,-8.99219 6.75781,-12.8125c1.42969,-2.02344 5.63282,-4.42187 6.6836,-3.74609c0.30078,0.22265 1.20312,1.34765 2.10547,2.47265zm-19.97657,10.19141c0.90235,0.67187 1.20313,1.5 0.90235,2.32422c-0.30078,0.67187 -0.67578,1.04687 -0.97656,0.74609c-0.30079,-0.22265 -1.27735,1.125 -2.25391,3.07422c-2.02734,4.19531 -2.32813,2.32422 -0.44922,-2.625c1.05078,-2.76953 1.05078,-3.37109 0.14844,-3.96875c-0.90235,-0.52734 -0.90235,-0.67578 0.07422,-0.67578c0.60156,0.07422 1.72656,0.52344 2.55468,1.125zm-5.03125,1.64844c-0.60156,0.75 -1.8789,2.99609 -2.77734,5.09375c-1.27734,3 -1.50391,3.29687 -1.20312,1.35156c0.44921,-2.625 4.05468,-8.84375 4.73046,-8.16797c0.30079,0.22266 -0.07421,1.04688 -0.75,1.72266zm-4.50781,10.86718c-0.22265,0.59766 -0.44922,0.3711 -0.44922,-0.45312c-0.07422,-0.82422 0.15235,-1.27344 0.375,-0.97266c0.22657,0.22657 0.30078,0.89844 0.07422,1.42578zm-4.80469,2.17188c0.75,1.27344 -1.42578,7.41797 -2.6289,7.41797c-0.75,0 -0.75,0.30078 0.52734,-3.97266c0.60156,-1.94531 0.75,-3.51953 0.375,-3.51953c-1.125,0 -2.77734,3.82031 -3.7539,8.83984c-1.27735,6.3711 -1.87891,5.32032 -0.75,-1.27343c1.19921,-7.34375 4.1289,-10.78907 6.23046,-7.49219zm116.92188,57.77734c0,0.44922 0.22656,0.67188 0.44922,0.3711c0.7539,-0.7461 12.3164,3.89843 14.19531,5.77343c2.85156,2.69532 5.70703,4.94532 6.38281,4.94532c0.97657,0 0.97657,2.02343 0,2.62109c-1.05078,0.67578 -21.70312,0.52344 -22.7539,-0.14844c-0.52735,-0.30078 -1.57813,-0.44922 -2.32813,-0.30078c-1.05078,0.14844 -1.35156,-0.14844 -1.05078,-1.19922c2.70313,-9.66797 5.10547,-15.51172 5.10547,-12.0625zm-66.83203,6.21875c0.30078,0.375 1.42578,2.32032 2.55078,4.19532l1.87891,3.52343l-6.38282,0.29688c-11.1914,0.60156 -13.29297,-0.52344 -9.08593,-4.71875c3.90234,-3.82031 9.23437,-5.47266 11.03906,-3.29688zm-27.03516,66.61719c0,0.22656 -0.30078,0.60156 -0.75,0.82422c-0.375,0.22656 -0.7539,0.07422 -0.7539,-0.30078c0,-0.44922 0.3789,-0.82422 0.7539,-0.82422c0.44922,0 0.75,0.15234 0.75,0.30078zm0,0" fill-rule="nonzero" fill="rgb(0%,0%,0%)" id="svg_2"/>
   <path d="m25.23047,24.80469c-4.57813,2.77344 -5.25391,4.19531 -6.08203,12.36328c-0.22656,2.02344 -0.90235,5.69531 -1.5,8.16797c-4.8086,19.41015 -6.3086,32 -4.88281,41.21484c0.52734,3.29688 0.97656,6.67188 1.05078,7.57031c0.07422,0.82422 0.375,1.79688 0.60156,2.2461c0.22656,0.375 0.67578,3 0.97656,5.84765c0.30078,2.84766 0.82422,5.91797 1.125,6.74219c0.375,0.89844 1.50391,5.54688 2.62891,10.34375c1.35156,5.91797 2.77734,10.03906 4.42969,12.73828c2.40625,3.97266 2.40625,3.97266 6.16015,3.97266c2.85156,-0.07813 5.10547,-0.75 8.85938,-2.625c7.73437,-3.97266 7.51172,-3.59766 8.63672,-15.28516c0.52734,-5.62109 0.82421,-10.49218 0.52734,-10.71875c-0.22656,-0.22265 -4.20703,-1.34765 -8.86328,-2.47265l-8.48438,-2.02344l0.14844,-2.47266c0.07422,-1.34765 1.35156,-6.44531 2.92969,-11.39062c1.8789,-5.84375 2.55469,-9.14063 2.10156,-9.58985c-0.44922,-0.44921 -4.12891,-1.875 -8.25781,-3.29687c-5.03125,-1.72656 -7.4375,-2.84766 -7.35938,-3.59766c0.14844,-2.17187 5.55469,-9.59375 8.5586,-11.76562c3.0039,-2.17188 3.07812,-2.2461 1.05078,-2.09766c-4.20313,0.30078 -2.77735,-1.94922 3.30469,-5.32031c3.15625,-1.72266 6.75781,-3.89844 7.88671,-4.87109l2.10157,-1.64844l-1.50391,-2.9961c-0.82422,-1.65234 -2.40234,-5.99609 -3.60156,-9.66796c-2.32813,-7.34375 -3.98047,-9.21875 -8.48828,-9.81641c-1.42578,-0.22656 -3.30078,0 -4.05469,0.44922zm0,0" fill-rule="nonzero" fill="rgb(0%,0%,0%)" id="svg_3"/>
   <path d="m193.36719,93.67188c-0.22656,0.375 -0.14844,0.75 0.30078,0.75c0.375,0 1.35156,0.22265 2.10156,0.52343c1.20313,0.44922 1.20313,0.375 0.30078,-0.75c-1.125,-1.42187 -2.02734,-1.64843 -2.70312,-0.52343zm0,0" fill-rule="nonzero" fill="rgb(0%,0%,0%)" id="svg_4"/>
   <path d="m213.19141,102.58984c0.97656,0.89844 2.10547,1.57032 2.55468,1.57032c0.90235,0 0.82422,0 -2.10156,-1.79688l-2.2539,-1.27344l1.80078,1.5zm0,0" fill-rule="nonzero" fill="rgb(0%,0%,0%)" id="svg_5"/>
   <path d="m212.51563,106.78516c0.52734,0.59765 1.72656,1.04687 2.70312,0.97265c2.40234,-0.22265 0.82813,-2.09765 -1.72656,-2.09765c-1.57813,0 -1.72656,0.14843 -0.97656,1.125zm0,0" fill-rule="nonzero" fill="rgb(0%,0%,0%)" id="svg_6"/>
   <path d="m217.77344,110.90625c0.60156,0.375 1.5,0.75 1.8789,0.75c0.44922,0 0.22266,-0.375 -0.3789,-0.75c-0.59766,-0.375 -1.42578,-0.75 -1.875,-0.75c-0.375,0 -0.22656,0.375 0.375,0.75zm0,0" fill-rule="nonzero" fill="rgb(0%,0%,0%)" id="svg_7"/>
   <path d="m228.88672,119.14844c1.35156,1.27344 2.85547,2.25 3.30469,2.25c0.52734,0 0.07422,-0.60156 -0.90235,-1.27344c-1.05078,-0.67578 -2.17578,-1.72656 -2.47656,-2.25c-0.30078,-0.52344 -0.97656,-0.97266 -1.50391,-0.97266c-0.52343,0 0.22657,1.04688 1.57813,2.2461zm0,0" fill-rule="nonzero" fill="rgb(0%,0%,0%)" id="svg_8"/>
   <path d="m242.55469,143.12891c0,0.375 0.375,0.75 0.75,0.75c0.44922,0 0.75,-0.375 0.75,-0.75c0,-0.44922 -0.30078,-0.75 -0.75,-0.75c-0.375,0 -0.75,0.30078 -0.75,0.75zm0,0" fill-rule="nonzero" fill="rgb(0%,0%,0%)" id="svg_9"/>
   <path d="m250.21484,151.74609c0.44922,1.19922 1.5,2.92188 2.25,3.7461c1.20313,1.27344 1.35157,1.27344 1.35157,0.15234c0,-0.67578 -1.05078,-2.32422 -2.25,-3.67187l-2.25391,-2.47266l0.90234,2.24609zm0,0" fill-rule="nonzero" fill="rgb(0%,0%,0%)" id="svg_10"/>
   <path d="m246.60938,153.54688c0,0.74609 0.44921,1.34765 0.97656,1.34765c0.52344,0 0.97656,-0.30078 0.97656,-0.52344c0,-0.30078 -0.45312,-0.90234 -0.97656,-1.35156c-0.75,-0.59765 -0.97656,-0.44922 -0.97656,0.52735zm0,0" fill-rule="nonzero" fill="rgb(0%,0%,0%)" id="svg_11"/>
   <path d="m249.3125,156.99219c0.52734,0.67578 1.125,0.97265 1.27734,0.82422c0.52344,-0.52344 -0.52734,-1.94922 -1.42578,-1.94922c-0.45312,0 -0.45312,0.44922 0.14844,1.125zm0,0" fill-rule="nonzero" fill="rgb(0%,0%,0%)" id="svg_12"/>
   <path d="m38.67188,161.26172c-0.75,2.39844 -1.27344,4.5 -1.05079,4.64844c0.15235,0.14843 1.57813,0.52343 3.15625,0.82422c2.85157,0.52343 2.85157,0.52343 2.32813,-1.57422c-0.22656,-1.19922 -1.05469,-3.52344 -1.80469,-5.17188l-1.27734,-2.99609l-1.35156,4.26953zm0,0" fill-rule="nonzero" fill="rgb(0%,0%,0%)" id="svg_13"/>
   <path d="m250.81641,163.0625c0,0.14844 0.75,0.59766 1.57422,1.125c1.27734,0.59766 1.5039,0.59766 1.27734,-0.15234c-0.30078,-0.82422 -2.85156,-1.72266 -2.85156,-0.97266zm0,0" fill-rule="nonzero" fill="rgb(0%,0%,0%)" id="svg_14"/>
   <path d="m250.4375,167.10938c1.27734,2.47265 2.25391,2.84765 2.92969,1.125c0.22656,-0.60157 -0.30078,-1.57422 -1.27735,-2.25c-2.40234,-1.72266 -2.92578,-1.34766 -1.65234,1.125zm0,0" fill-rule="nonzero" fill="rgb(0%,0%,0%)" id="svg_15"/>
   <path d="m259.82422,183.89453c0,0.14844 0.52734,0.44922 1.12891,0.75c0.60156,0.22266 1.125,0.07422 1.125,-0.30078c0,-0.44922 -0.52344,-0.75 -1.125,-0.75c-0.60157,0 -1.12891,0.15234 -1.12891,0.30078zm0,0" fill-rule="nonzero" fill="rgb(0%,0%,0%)" id="svg_16"/>
   <path d="m192.84375,208.69922c-0.30078,0.30078 -4.28125,0.59766 -8.9375,0.67187c-6.23437,0.15235 -8.5625,0.45313 -8.78516,1.125c-0.30078,0.82422 1.80079,0.89844 11.1875,0.44922c11.11329,-0.52343 12.61719,-0.67187 11.78907,-1.49609c-0.67578,-0.67578 -4.73047,-1.27344 -5.25391,-0.75zm0,0" fill-rule="nonzero" fill="rgb(0%,0%,0%)" id="svg_17"/>
   <path d="m203.12891,213.57031c-4.12891,0.29688 -12.23828,0.59766 -17.94532,0.67188c-10.58984,0.07812 -11.64062,0.375 -11.71484,2.92578c0,0.59766 0.67578,1.19922 1.5,1.42187c1.57813,0.44922 1.57813,0.52344 3.00391,11.98829c1.5039,12.14062 4.42968,19.03515 8.9375,20.91015c8.03515,3.3711 17.72265,-1.35156 22.67578,-11.01562c2.40625,-4.8711 3.23047,-8.09375 4.35547,-16.63672c0.52734,-4.64453 1.05468,-6.14453 2.2539,-7.04297c0.90235,-0.60156 1.57813,-1.72656 1.57813,-2.55078c0,-1.57031 -0.90235,-1.64844 -14.64453,-0.67188zm-14.79297,4.94532c0.90234,0.30078 1.65234,1.04687 1.65234,1.72265c0,1.42578 -3.3789,4.79688 -5.33203,5.54688c-1.72656,0.59765 -4.42969,-2.47266 -4.42969,-4.8711c0,-1.57422 0.44922,-2.09765 2.10157,-2.32422c3.45312,-0.52343 4.20703,-0.52343 6.00781,-0.07421zm0,0" fill-rule="nonzero" fill="rgb(0%,0%,0%)" id="svg_18"/>
   <path d="m95.37109,215.06641c0,0.82422 0.67579,1.875 1.5,2.39843c1.125,0.67579 1.50391,1.80079 1.50391,3.97266c0.07422,10.94141 4.50391,23.98047 9.53516,27.80078c2.77734,2.09766 8.85937,4.04688 12.83984,4.04688c5.10938,0 10.44141,-3.3711 12.91797,-8.24219c1.72656,-3.37109 4.50391,-15.36328 4.50391,-19.33203c0,-4.27344 1.1289,-6.89453 3.0039,-6.89453c1.20313,0 1.50391,-0.52735 1.50391,-2.47266l0,-2.39844l-23.65625,-0.15234c-23.12891,-0.22266 -23.65235,-0.14844 -23.65235,1.27344zm14.86719,5.32031c0.14844,1.42578 -0.30078,2.47656 -1.80078,3.59766c-3.67969,2.92187 -7.05859,1.27343 -7.05859,-3.3711l0,-2.62109l4.35547,0.22265c3.97656,0.22657 4.27734,0.375 4.5039,2.17188zm0,0" fill-rule="nonzero" fill="rgb(0%,0%,0%)" id="svg_19"/>
   <path d="m64.28125,236.72656c-0.30078,0.52344 -0.375,1.1211 -0.15234,1.34766c0.67578,0.67578 1.42968,-0.30078 1.05468,-1.34766c-0.30078,-0.82422 -0.45312,-0.82422 -0.90234,0zm0,0" fill-rule="nonzero" fill="rgb(0%,0%,0%)" id="svg_20"/>
   <path d="m87.55859,265.94922c-0.30078,0.44922 -3.0039,0.82422 -6.53125,0.82422l-5.93359,0l0,2.69922c0,1.79687 -1.05078,4.34765 -3.30469,8.09375c-4.65625,7.71875 -7.43359,16.03515 -7.05859,21.13281c0.75,8.91406 7.43359,18.20703 17.19531,24.05469c6.60938,3.96875 6.38672,3.96875 7.73828,-1.80078c3.30078,-14.76172 3.37891,-23.37891 0.22266,-34.92188c-1.125,-3.96875 -2.02734,-8.46484 -2.02734,-9.96484c0,-2.47266 0.15234,-2.69922 1.72656,-2.17188c3.0039,0.89844 8.78906,1.34766 8.78906,0.59766c0,-0.375 -1.05469,-1.27344 -2.25391,-2.02344c-1.27734,-0.75 -3.60546,-2.69531 -5.18359,-4.34375c-1.80078,-1.80078 -3.07812,-2.625 -3.37891,-2.17578zm0,0" fill-rule="nonzero" fill="rgb(0%,0%,0%)" id="svg_21"/>
   <path d="m155.07031,275.76563c-1.80468,0.30078 -2.55468,0.67578 -1.8789,0.90234c1.8789,0.74609 6.23437,0.29687 6.60937,-0.75c0.30078,-0.97656 0,-0.97656 -4.73047,-0.15234zm0,0" fill-rule="nonzero" fill="rgb(0%,0%,0%)" id="svg_22"/>
   <path d="m186.98438,281.53516c0,1.125 -4.80469,2.92578 -12.39063,4.57422c-3.67969,0.82421 -8.63672,1.94531 -10.88672,2.47265c-6.16015,1.42188 -23.20703,1.27344 -30.1914,-0.30078c-6.60547,-1.42578 -7.35938,-1.5 -7.35938,-0.59766c0,0.82422 5.18359,2.09766 10.28906,2.6211c4.73047,0.44922 14.49219,3.22265 14.49219,4.12109c0,0.375 0.52734,0.89844 1.20313,1.125c0.75,0.30078 1.35156,-0.22656 1.95312,-1.80078c0.44922,-1.34766 1.35156,-2.39453 2.32813,-2.54687c4.1289,-0.75 14.11718,-2.84766 18.17187,-3.89454c2.47656,-0.60156 5.33203,-1.35156 6.38281,-1.57421c1.05078,-0.30079 2.92969,-1.05079 4.20703,-1.80079c2.17579,-1.19921 2.47657,-1.19921 3.52735,-0.07421c0.67578,0.67578 1.42578,0.97656 1.65234,0.82421c0.22656,-0.22265 -0.44922,-1.19921 -1.5,-2.17187c-1.05469,-0.97656 -1.8789,-1.42578 -1.8789,-0.97656zm0,0" fill-rule="nonzero" fill="rgb(0%,0%,0%)" id="svg_23"/>
   <path d="m123.90625,287.00781c0,0.375 0.375,0.75 0.82422,0.75c0.375,0 0.52734,-0.375 0.30078,-0.75c-0.22656,-0.44922 -0.60156,-0.75 -0.82422,-0.75c-0.15234,0 -0.30078,0.30078 -0.30078,0.75zm0,0" fill-rule="nonzero" fill="rgb(0%,0%,0%)" id="svg_24"/>
   <path d="m197.72266,292.32813c-0.375,0.375 -1.57813,0.82421 -2.55469,0.82421c-0.97266,0.07422 -2.77734,0.97266 -4.05469,2.02344c-1.80078,1.5 -1.94922,1.72266 -0.67578,1.42188c1.42969,-0.375 1.57813,-0.22266 1.05078,2.02343c-0.67578,3.14844 -1.35156,4.1211 -2.625,4.1211c-0.52734,0 -1.20312,0.52734 -1.42969,1.19922c-0.75,1.875 -1.94921,0.375 -1.94921,-2.39453c0,-2.02344 0.375,-2.77344 1.72656,-3.30079c0.89844,-0.37109 1.27734,-0.67187 0.82422,-0.67187c-0.52344,-0.07422 -4.12891,1.27344 -8.10938,2.92187c-3.98047,1.64844 -9.01172,3.29688 -11.1875,3.59766l-3.90625,0.52344l-0.22656,5.62109c-0.30078,6.29297 0.45312,12.36328 3.75391,29.44922c1.73046,9.29297 2.02734,12.06641 1.35156,12.89063c-2.32422,2.76953 -12.53906,3.44531 -22.15235,1.42187c-7.05859,-1.42187 -15.3164,-4.71875 -16.44531,-6.44531c-0.60156,-1.04688 -0.30078,-3.22266 1.27735,-9.36719c2.47656,-9.36719 6.38281,-17.75781 11.48828,-24.35156c3.53125,-4.64844 3.53125,-4.64844 2.2539,-6.82031c-0.67578,-1.19922 -1.19922,-2.69922 -1.19922,-3.3711c0,-0.82422 -0.82812,-0.30078 -2.48046,1.64844l-2.47657,2.92187l-3.30468,-1.72265c-1.87891,-0.90235 -5.70704,-3.07422 -8.48438,-4.72266c-5.18359,-2.99609 -7.4375,-3.44531 -3.90625,-0.67578c2.40234,1.875 7.88281,12.51563 7.88281,15.28906c0,1.125 -0.44922,2.47266 -0.89843,2.9961c-0.52735,0.52734 -1.50391,1.94922 -2.10547,3.07422c-0.59766,1.19921 -2.10157,2.99609 -3.37891,4.12109l-2.25,1.87109l-0.60156,-6.29297c-0.75,-7.57031 -0.90235,-8.16796 -2.25391,-8.16796c-0.82422,0 -1.05078,1.57421 -1.125,6.82031c0,6.29297 0.07422,6.8164 1.57422,7.41797c1.50391,0.59765 1.50391,0.67578 -0.44922,0.67578c-1.125,0.07422 -3.07812,-0.45313 -4.28125,-1.05078c-1.875,-0.97266 -2.17578,-0.97266 -2.55078,0.14843c-0.30078,0.67579 0.07422,1.80079 0.67578,2.47266c1.05078,1.19922 0.89844,1.72656 -2.55469,6.82031c-4.20312,6.21875 -14.1914,16.1875 -20.125,20.16016c-2.17578,1.42187 -4.35546,3.51953 -4.8789,4.64453c-0.52735,1.19922 -1.35547,2.09766 -1.80469,2.09766c-0.52344,0 -1.05078,0.67578 -1.27734,1.42578c-0.22266,0.82422 -2.10157,2.24609 -4.57813,3.37109c-2.32812,1.04688 -4.20703,2.2461 -4.20703,2.6211c0,0.375 1.50391,2.55078 3.37891,4.79687l3.30468,4.04688l-1.8789,1.79687l-1.875,1.80078l-2.55469,-2.99609c-1.42578,-1.65235 -2.77734,-3.59766 -3.00391,-4.34766c-0.30078,-0.67578 -0.82421,-1.27344 -1.19921,-1.27344c-1.27735,0 -0.67579,-1.42578 0.82421,-1.875c1.57813,-0.52343 2.10157,-1.87109 0.60157,-1.87109c-1.80078,0 -6.00782,-4.04687 -8.1836,-7.94531c-1.27734,-2.2461 -2.6289,-4.04688 -3.0039,-4.04688c-0.97657,0 -4.35547,11.46485 -4.88282,17.01172c-0.30078,2.77344 -0.90234,5.39453 -1.35156,5.69531c-0.60156,0.44922 -0.52734,0.75 0.14844,1.04688c0.60156,0.22656 2.10547,1.27734 3.37891,2.39844c1.35546,1.05078 4.13281,2.77343 6.16015,3.67187c2.10156,0.97656 4.28125,2.09766 4.87891,2.47266c2.55469,1.42578 10.28906,5.17187 10.73828,5.17187c1.65234,0 8.33594,5.46875 16.67187,13.71485c5.40625,5.32031 11.11329,10.5664 12.84375,11.76562c1.64844,1.19531 7.0586,3.67188 12.01172,5.61719l8.9375,3.52344l7.88672,-0.52344c14.49219,-0.82422 17.42188,-1.35156 25.45703,-4.64844c8.9336,-3.67187 12.46485,-5.32031 14.49219,-6.89453c0.97656,-0.75 3.45313,-1.94531 5.63281,-2.62109c2.10157,-0.67578 4.27735,-1.80078 4.73047,-2.39844c0.52344,-0.52344 1.5,-1.05078 2.25,-1.05078c2.25391,0 6.98438,-2.32031 9.83985,-4.79297c4.20312,-3.59766 10.0625,-6.96875 13.14062,-7.49609c1.50391,-0.29688 3.45313,-0.97266 4.35547,-1.57422c2.47656,-1.4961 15.76953,-4.26953 18.02344,-3.67188c1.05078,0.22656 3.0039,0.07813 4.20312,-0.44922c1.87891,-0.74609 2.55469,-0.74609 4.20703,0.375c1.95313,1.27344 8.41016,1.27344 14.41797,0c3.00391,-0.67187 7.58594,-6.36718 7.66016,-9.51562c0,-2.77344 -1.42578,-5.69531 -3.15625,-6.29688c-0.75,-0.22265 -1.80078,-1.27343 -2.40235,-2.39453c-1.35156,-2.625 -4.1289,-5.62109 -6.45703,-7.12109c-1.80078,-1.19922 -2.17968,-1.125 -5.18359,0.375c-1.80078,0.89844 -5.03125,1.79687 -7.20703,1.94922l-3.82813,0.30078l-3.90625,-4.64844c-2.32812,-2.69531 -3.90625,-5.39453 -3.90625,-6.44531c0,-2.09766 -2.77734,-3.96875 -3.15234,-2.09766c-0.22656,0.97656 -6.23438,-4.34375 -24.10547,-21.28125c-3.30469,-3.14844 -6.98437,-8.6914 -7.66016,-11.53906c-0.375,-1.5 -0.07421,-2.625 1.05079,-4.04688c2.02734,-2.625 1.80468,-5.99609 -0.60157,-8.09375c-6.98047,-6.14453 -7.13281,-6.59375 -4.1289,-10.11718c1.57812,-1.8711 1.8789,-2.92188 1.65234,-5.17188c-0.375,-3.07031 0.60156,-6.14453 2.02734,-6.14453c0.52735,0 1.35157,-0.52344 1.87891,-1.12109c1.05078,-1.27344 0.67578,-1.5 -0.52734,-0.30078zm55.87109,80.33203l1.65234,0.89843l-2.2539,3.97266c-2.40235,4.19531 -2.70313,4.42188 -4.73047,2.92188c-1.27734,-0.97266 -1.27734,-1.19922 0.75,-4.8711c1.20312,-2.09765 2.32812,-3.89453 2.55469,-3.89453c0.22265,0.07422 1.125,0.44922 2.02734,0.97266zm-26.88281,8.3164c0.67578,0.82422 0.07422,1.42578 -3.08203,3.22266c-6.6836,3.59766 -11.63672,5.69531 -12.53907,5.17187c-1.35156,-0.82421 -0.60156,-1.42578 5.48047,-4.49609c3.15625,-1.57422 6.08203,-3.37109 6.53516,-3.89844c1.125,-1.34765 2.47656,-1.34765 3.60547,0zm19.67187,2.69922c1.50391,0 0.52735,2.2461 -1.57422,3.7461c-1.8789,1.34765 -2.55468,1.42578 -3.38281,0.75c-0.59765,-0.52344 -1.125,-1.34766 -1.125,-1.94922c0,-1.27344 3.15625,-3.44532 4.35547,-2.92188c0.60156,0.22656 1.35156,0.375 1.72656,0.375zm-153.71484,3.29688c3.15234,1.42578 5.70703,2.92187 5.70703,3.37109c0,1.5 -3.00391,1.57422 -5.78516,0.22656c-1.57421,-0.82422 -4.1289,-1.875 -5.6289,-2.32422c-2.78125,-0.89843 -3.75781,-2.54687 -1.87891,-3.29687c1.57813,-0.67578 1.80078,-0.59766 7.58594,2.02344zm111.58984,6.37109c0,0.89844 -11.79297,11.3125 -12.76953,11.3125c-0.44922,0 -0.75,-0.59766 -0.75,-1.34766c0,-0.82421 2.10547,-2.84765 5.63281,-5.24609c3.07813,-2.17187 5.78125,-4.26953 6.00782,-4.64453c0.60156,-0.97656 1.8789,-0.97656 1.8789,-0.07422zm-93.19531,5.84375c3.15625,2.69922 5.70703,5.32031 5.70703,5.69531c0,0.375 -0.52344,1.05078 -1.19922,1.5c-1.05078,0.59766 -2.40234,-0.30078 -7.28515,-4.72265c-4.65625,-4.26953 -5.85547,-5.76953 -5.25782,-6.51953c1.27735,-1.57422 2.03125,-1.19922 8.03516,4.04687zm73.36719,7.34375c0.30078,0.59766 0.07812,1.64844 -0.44922,2.25c-0.75,0.89844 -13.51563,5.61719 -15.24219,5.61719c-0.3789,0 -0.52734,-0.89844 -0.3789,-1.94531c0.22656,-1.72657 0.90234,-2.17579 5.48437,-3.59766c2.92969,-0.90234 5.93359,-2.09766 6.75781,-2.55078c2.10157,-1.19922 3.37891,-1.1211 3.82813,0.22656zm-55.64453,2.99609c1.65234,0.52735 4.43359,1.35157 6.23437,1.80079c3.15235,0.89843 3.90625,2.17187 2.47656,4.49609c-0.97656,1.49609 -15.84375,-3.29688 -15.84375,-5.09766c0,-1.79687 1.65235,-3.22265 3.00391,-2.62109c0.60156,0.22266 2.47656,0.89844 4.12891,1.42187zm30.41406,2.55079c0,1.49609 -0.44922,2.39453 -1.27734,2.62109c-1.19922,0.375 -12.98829,2.69922 -13.58985,2.69922c-0.15234,0 -0.15234,-0.90235 0,-2.10156c0.22266,-1.8711 0.67578,-2.17188 6.23047,-3.67188c8.1875,-2.17187 8.63672,-2.17187 8.63672,0.45313zm0,0" fill-rule="nonzero" fill="rgb(0%,0%,0%)" id="svg_25"/>
   <path d="m55.41797,302.59375c-0.22266,0.67578 -0.44922,3.74609 -0.52344,6.74609c-0.15234,5.01954 -0.07422,5.39454 1.35156,5.39454c1.5,0 1.57813,-0.44922 1.57813,-6.7461c0,-5.24609 -0.22656,-6.74219 -1.05469,-6.74219c-0.52344,0 -1.19922,0.59766 -1.35156,1.34766zm0,0" fill-rule="nonzero" fill="rgb(0%,0%,0%)" id="svg_26"/>
   <path d="m115.41797,304.24219c-0.375,1.34765 1.20312,2.99609 2.78125,2.99609c0.97656,0 0.375,-2.09765 -0.97656,-3.29687c-1.27735,-1.19922 -1.42578,-1.19922 -1.80469,0.30078zm0,0" fill-rule="nonzero" fill="rgb(0%,0%,0%)" id="svg_27"/>
   <path d="m242.70313,309.63672c-1.875,11.31641 -1.875,10.86719 -0.22266,11.31641c1.27344,0.30078 1.57422,-0.22266 2.32812,-4.64454c1.35157,-8.16796 1.27344,-10.86718 -0.07812,-11.16796c-0.97656,-0.14844 -1.42578,0.75 -2.02734,4.49609zm0,0" fill-rule="nonzero" fill="rgb(0%,0%,0%)" id="svg_28"/>
   <path d="m54.51953,331.37109c0.75,7.79297 1.35156,9.96485 2.85156,10.19141c1.20313,0.29688 1.35157,-0.07812 0.97657,-3c-0.30078,-1.72266 -0.67578,-5.16797 -0.97657,-7.56641c-0.375,-3.52343 -0.75,-4.27343 -1.875,-4.27343c-1.27734,0 -1.35156,0.44922 -0.97656,4.64843zm0,0" fill-rule="nonzero" fill="rgb(0%,0%,0%)" id="svg_29"/>
   <path d="m237.67188,333.61719c-3.67969,10.86719 -4.35547,13.48828 -3.37891,14.08984c0.60156,0.375 1.27734,0.52344 1.57812,0.29688c0.97657,-0.52344 5.25782,-13.26172 4.87891,-14.3125c-0.52344,-1.27344 -2.625,-1.27344 -3.07812,-0.07422zm0,0" fill-rule="nonzero" fill="rgb(0%,0%,0%)" id="svg_30"/>
   <path d="m61.35156,349.65625c-0.82422,0.82422 3.75391,4.04297 5.03125,3.59375c1.42578,-0.52344 1.50391,-0.97266 0.15235,-2.76953c-0.97657,-1.19922 -4.20703,-1.80078 -5.1836,-0.82422zm0,0" fill-rule="nonzero" fill="rgb(0%,0%,0%)" id="svg_31"/>
   <path d="m68.33594,359.32031c0,3.14844 9.3125,10.26563 11.1875,8.39453c1.35156,-1.35156 0.97656,-1.94921 -1.72656,-3.07421c-1.42579,-0.59766 -3.90235,-2.2461 -5.55469,-3.7461c-3.23047,-2.99609 -3.90625,-3.22265 -3.90625,-1.57422zm0,0" fill-rule="nonzero" fill="rgb(0%,0%,0%)" id="svg_32"/>
   <path d="m65.48047,404.80859c-2.55078,0.52344 -4.42969,1.94922 -10.13672,7.56641c-7.20703,7.19531 -8.71094,9.89453 -9.98828,17.53516c-0.59766,3.75 1.42969,12.89062 3.60547,16.5625c3.0039,4.94531 9.61328,8.16797 18.39844,8.91797c7.80859,0.59765 13.14062,-1.125 17.57031,-5.84766c1.95312,-2.01953 3.75781,-4.57031 3.98047,-5.69141c1.80468,-7.57031 2.78125,-9.96875 4.13281,-9.96875c0.75,0 1.80078,-0.52343 2.32812,-1.05078c0.67579,-0.89844 0.375,-1.57031 -1.65234,-3.37109c-1.35156,-1.27344 -2.70312,-2.32031 -2.92969,-2.32031c-0.30078,0 -1.05078,-0.82422 -1.65234,-1.80079c-1.125,-1.72265 -1.125,-1.94921 0.30078,-3.74609c0.90234,-1.125 1.42578,-2.39844 1.19922,-2.92187c-0.22266,-0.52735 -4.57813,-3.07422 -9.76172,-5.6211c-9.38672,-4.57031 -11.78906,-6.59375 -10.13672,-8.24219c1.05078,-1.05078 -0.52344,-1.05078 -5.25781,0zm0,0" fill-rule="nonzero" fill="rgb(0%,0%,0%)" id="svg_33"/>
   <path d="m222.27734,412.97656c-5.6289,2.47266 -15.01562,5.32032 -16.14453,4.8711c-0.60156,-0.22657 -1.125,-0.89844 -1.125,-1.57422c0,-2.09766 -1.27734,-1.19922 -4.58203,3.14844c-1.72656,2.39453 -4.5039,5.69531 -6.08203,7.41796l-2.92969,3.07032l-0.14843,7.79297c-0.22657,10.79296 1.65234,16.63671 7.20703,22.55859c4.80859,5.09375 9.16406,6.66797 18.77343,6.81641c10.51563,0.22656 16.07032,-3.59375 21.10157,-14.46094c1.5039,-3.22266 1.95312,-5.32031 1.95312,-9.59375c0,-6.29297 -2.10156,-15.51172 -4.95703,-21.42969c-1.72656,-3.74609 -7.66016,-10.26562 -9.08594,-10.11719c-0.30078,0 -2.10156,0.67578 -3.98047,1.5zm0,0" fill-rule="nonzero" fill="rgb(0%,0%,0%)" id="svg_34"/>
  </g>
 </g>

</svg>